<svg version="1.2" xmlns="http://www.w3.org/2000/svg" viewBox="0 0 96 96" width="96" height="96">
	<title>chrome-logo-svg</title>
	<defs>
		<linearGradient id="g1" x1="53.2" y1="93" x2="11.6" y2="21" gradientUnits="userSpaceOnUse">
			<stop offset="0" stop-color="#1e8e3e"/>
			<stop offset="1" stop-color="#34a853"/>
		</linearGradient>
		<linearGradient id="g2" x1="41" y1="96.1" x2="82.6" y2="24.1" gradientUnits="userSpaceOnUse">
			<stop offset="0" stop-color="#fcc934"/>
			<stop offset="1" stop-color="#fbbc04"/>
		</linearGradient>
		<linearGradient id="g3" x1="6.4" y1="30" x2="89.6" y2="30" gradientUnits="userSpaceOnUse">
			<stop offset="0" stop-color="#d93025"/>
			<stop offset="1" stop-color="#ea4335"/>
		</linearGradient>
	</defs>
	<style>
		.s0 { fill: #ffffff } 
		.s1 { fill: url(#g1) } 
		.s2 { fill: url(#g2) } 
		.s3 { fill: #1a73e8 } 
		.s4 { fill: url(#g3) } 
	</style>
	<path id="Layer" class="s0" d="m48 72c-13.3 0-24-10.7-24-24 0-13.3 10.7-24 24-24 13.3 0 24 10.7 24 24 0 13.3-10.7 24-24 24z"/>
	<path id="Layer" class="s1" d="m27.2 60l-20.8-36c-4.2 7.3-6.4 15.6-6.4 24 0 8.4 2.2 16.7 6.4 24 4.2 7.3 10.3 13.4 17.6 17.6 7.3 4.2 15.6 6.4 24 6.4l20.8-36c-2.1 3.6-5.2 6.7-8.8 8.8-3.6 2.1-7.8 3.2-12 3.2-4.2 0-8.4-1.1-12-3.2-3.7-2.1-6.7-5.2-8.8-8.8z"/>
	<path id="Layer" class="s2" d="m68.8 60l-20.8 36c8.4 0 16.7-2.2 24-6.4 7.3-4.2 13.4-10.3 17.6-17.6 4.2-7.3 6.4-15.6 6.4-24 0-8.4-2.2-16.7-6.4-24h-41.6c4.2 0 8.3 1.1 12 3.2 3.6 2.1 6.7 5.1 8.8 8.8 2.1 3.6 3.2 7.8 3.2 12 0 4.2-1.1 8.4-3.2 12z"/>
	<path id="Layer" class="s3" d="m48 67c-10.5 0-19-8.5-19-19 0-10.5 8.5-19 19-19 10.5 0 19 8.5 19 19 0 10.5-8.5 19-19 19z"/>
	<path id="Layer" class="s4" d="m48 24h41.6c-4.3-7.3-10.3-13.4-17.6-17.6-7.3-4.2-15.6-6.4-24-6.4-8.4 0-16.7 2.2-24 6.4-7.3 4.2-13.4 10.3-17.6 17.6l20.8 36c-2.1-3.6-3.2-7.8-3.2-12 0-4.2 1.1-8.4 3.2-12 2.1-3.6 5.1-6.7 8.8-8.8 3.6-2.1 7.8-3.2 12-3.2z"/>
</svg>