<svg version="1.2" xmlns="http://www.w3.org/2000/svg" viewBox="0 0 96 96" width="96" height="96">
	<title>firefox-logo-svg</title>
	<defs>
		<radialGradient id="g1" cx="9217.7" cy="1437.4" r="8641.6" gradientUnits="userSpaceOnUse">
			<stop offset="0" stop-color="#fff36e"/>
			<stop offset=".5" stop-color="#fc4055"/>
			<stop offset="1" stop-color="#e31587"/>
		</radialGradient>
		<radialGradient id="g2" cx="960.2" cy="1724.8" r="6721.3" gradientUnits="userSpaceOnUse">
			<stop offset="0" stop-color="#c60084" stop-opacity="1"/>
			<stop offset="1" stop-color="#fc4055" stop-opacity="0"/>
		</radialGradient>
		<radialGradient id="g3" cx="10562" cy="766.6" r="12770.4" gradientUnits="userSpaceOnUse">
			<stop offset="0" stop-color="#ffde67" stop-opacity=".6"/>
			<stop offset=".7" stop-color="#fc4055" stop-opacity="0"/>
		</radialGradient>
		<radialGradient id="g4" cx="4224.8" cy="4887.1" r="16803.2" gradientUnits="userSpaceOnUse">
			<stop offset=".1" stop-color="#810220" stop-opacity="1"/>
			<stop offset=".3" stop-color="#fc4055" stop-opacity="0"/>
		</radialGradient>
		<radialGradient id="g5" cx="5089" cy="5270.4" r="15362.9" gradientUnits="userSpaceOnUse">
			<stop offset=".1" stop-color="#810220" stop-opacity="1"/>
			<stop offset=".3" stop-color="#fc4055" stop-opacity="0"/>
		</radialGradient>
		<radialGradient id="g6" cx="7736.2" cy="947.7" r="9533.4" gradientUnits="userSpaceOnUse">
			<stop offset="0" stop-color="#ff9640"/>
			<stop offset=".8" stop-color="#fc4055"/>
		</radialGradient>
		<radialGradient id="g7" cx="7822.1" cy="1550.4" r="9705.2" gradientUnits="userSpaceOnUse">
			<stop offset=".1" stop-color="#ffde67" stop-opacity="1"/>
			<stop offset=".8" stop-color="#ff9640" stop-opacity="0"/>
		</radialGradient>
		<radialGradient id="g8" cx="5417.3" cy="4219.4" r="4637.9" gradientUnits="userSpaceOnUse">
			<stop offset=".4" stop-color="#fc4055" stop-opacity="1"/>
			<stop offset=".6" stop-color="#ff9640" stop-opacity="0"/>
		</radialGradient>
		<radialGradient id="g9" cx="4558.4" cy="4477.7" r="4637.9" gradientUnits="userSpaceOnUse">
			<stop offset=".2" stop-color="#fc4055" stop-opacity=".8"/>
			<stop offset=".5" stop-color="#ff9640" stop-opacity="0"/>
		</radialGradient>
		<radialGradient id="g10" cx="7266.1" cy="137.3" r="11297.4" gradientUnits="userSpaceOnUse">
			<stop offset=".1" stop-color="#fff36e"/>
			<stop offset=".6" stop-color="#ff9640"/>
			<stop offset=".7" stop-color="#ff9640"/>
		</radialGradient>
		<linearGradient id="g11" x1="1814.9" y1="-90.5" x2="2854.5" y2="2383.2" gradientUnits="userSpaceOnUse">
			<stop offset="0" stop-color="#b833e1"/>
			<stop offset=".4" stop-color="#9059ff"/>
			<stop offset="1" stop-color="#0090ed"/>
		</linearGradient>
		<linearGradient id="g12" x1="3069.6" y1="1538.5" x2="1169.6" y2="-301.7" gradientUnits="userSpaceOnUse">
			<stop offset="0" stop-color="#592acb" stop-opacity=".5"/>
			<stop offset=".2" stop-color="#722291" stop-opacity="0"/>
		</linearGradient>
		<linearGradient id="g13" x1="5762.1" y1="557.6" x2="1613.4" y2="6030" gradientUnits="userSpaceOnUse">
			<stop offset="0" stop-color="#fff36e" stop-opacity=".8"/>
			<stop offset=".1" stop-color="#fff36e" stop-opacity=".7"/>
			<stop offset=".8" stop-color="#fff36e" stop-opacity="0"/>
		</linearGradient>
	</defs>
	<style>
		.s0 { fill: url(#g1) } 
		.s1 { opacity: .7;fill: url(#g2) } 
		.s2 { fill: url(#g3) } 
		.s3 { fill: url(#g4) } 
		.s4 { fill: url(#g5) } 
		.s5 { fill: url(#g6) } 
		.s6 { fill: url(#g7) } 
		.s7 { opacity: .5;mix-blend-mode: multiply;fill: url(#g8) } 
		.s8 { opacity: .5;mix-blend-mode: multiply;fill: url(#g9) } 
		.s9 { fill: url(#g10) } 
		.s10 { fill: url(#g11) } 
		.s11 { fill: url(#g12) } 
		.s12 { fill: url(#g13) } 
	</style>
	<path id="Layer" class="s0" d="m86.3 18.8c-2.1-2.8-4.5-5.4-7.2-7.6-2.7-2.3-5.7-4.3-8.8-5.9-3.2-1.6-6.5-2.9-9.9-3.8-3.4-0.9-7-1.4-10.5-1.5-11.1-0.2-18.8 3.1-23.2 5.8 5.8-3.4 14.3-5.3 21.7-5.2 18.9 0.3 39.4 13.2 42.4 36.5 3.5 26.8-15.2 49.1-41.4 49.2-28.9 0.1-46.4-25.5-41.8-48.4q0-0.4 0.1-0.9 0-0.4 0.1-0.8 0-0.4 0.1-0.8 0.1-0.5 0.2-0.9 0.2-2.2 0.6-4.3 0.4-2.2 1.1-4.3 0.6-2.1 1.4-4.2 0.9-2 1.9-4c-3.3 1.7-7.6 7.2-9.6 12.2q-1.2 2.9-1.9 5.9-0.8 3-1.2 6-0.4 3.1-0.4 6.2 0 3.1 0.3 6.1 0.1 1 0.3 1.9c2.5 14.5 11.5 27.1 24.5 34.1 12.9 7 28.4 7.6 41.9 1.8 13.5-5.9 23.6-17.6 27.4-31.9 3.8-14.2 0.8-29.4-8.1-41.2z"/>
	<path id="Layer" class="s1" d="m86.3 18.8c-2.1-2.8-4.5-5.4-7.2-7.6-2.7-2.3-5.7-4.3-8.8-5.9-3.2-1.6-6.5-2.9-9.9-3.8-3.4-0.9-7-1.4-10.5-1.5-11.1-0.2-18.8 3.1-23.2 5.8 5.8-3.4 14.3-5.3 21.7-5.2 18.9 0.3 39.4 13.2 42.4 36.5 3.5 26.8-15.2 49.1-41.4 49.2-28.9 0.1-46.4-25.5-41.8-48.4q0-0.4 0.1-0.9 0-0.4 0.1-0.8 0-0.4 0.1-0.8 0.1-0.5 0.2-0.9 0.2-2.2 0.6-4.3 0.4-2.2 1.1-4.3 0.6-2.1 1.4-4.2 0.9-2 1.9-4c-3.3 1.7-7.6 7.2-9.6 12.2q-1.2 2.9-1.9 5.9-0.8 3-1.2 6-0.4 3.1-0.4 6.2 0 3.1 0.3 6.1 0.1 1 0.3 1.9c2.5 14.5 11.5 27.1 24.5 34.1 12.9 7 28.4 7.6 41.9 1.8 13.5-5.9 23.6-17.6 27.4-31.9 3.8-14.2 0.8-29.4-8.1-41.2z"/>
	<path id="Layer" class="s2" d="m86.3 18.8c-2.1-2.8-4.5-5.4-7.2-7.6-2.7-2.3-5.7-4.3-8.8-5.9-3.2-1.6-6.5-2.9-9.9-3.8-3.4-0.9-7-1.4-10.5-1.5-11.1-0.2-18.8 3.1-23.2 5.8 5.8-3.4 14.3-5.3 21.7-5.2 18.9 0.3 39.4 13.2 42.4 36.5 3.5 26.8-15.2 49.1-41.4 49.2-28.9 0.1-46.4-25.5-41.8-48.4q0-0.4 0.1-0.9 0-0.4 0.1-0.8 0-0.4 0.1-0.8 0.1-0.5 0.2-0.9 0.2-2.2 0.6-4.3 0.4-2.2 1.1-4.3 0.6-2.1 1.4-4.2 0.9-2 1.9-4c-3.3 1.7-7.6 7.2-9.6 12.2q-1.2 2.9-1.9 5.9-0.8 3-1.2 6-0.4 3.1-0.4 6.2 0 3.1 0.3 6.1 0.1 1 0.3 1.9c2.5 14.5 11.5 27.1 24.5 34.1 12.9 7 28.4 7.6 41.9 1.8 13.5-5.9 23.6-17.6 27.4-31.9 3.8-14.2 0.8-29.4-8.1-41.2z"/>
	<path id="Layer" class="s3" d="m86.3 18.8c-2.1-2.8-4.5-5.4-7.2-7.6-2.7-2.3-5.7-4.3-8.8-5.9-3.2-1.6-6.5-2.9-9.9-3.8-3.4-0.9-7-1.4-10.5-1.5-11.1-0.2-18.8 3.1-23.2 5.8 5.8-3.4 14.3-5.3 21.7-5.2 18.9 0.3 39.4 13.2 42.4 36.5 3.5 26.8-15.2 49.1-41.4 49.2-28.9 0.1-46.4-25.5-41.8-48.4q0-0.4 0.1-0.9 0-0.4 0.1-0.8 0-0.4 0.1-0.8 0.1-0.5 0.2-0.9 0.2-2.2 0.6-4.3 0.4-2.2 1.1-4.3 0.6-2.1 1.4-4.2 0.9-2 1.9-4c-3.3 1.7-7.6 7.2-9.6 12.2q-1.2 2.9-1.9 5.9-0.8 3-1.2 6-0.4 3.1-0.4 6.2 0 3.1 0.3 6.1 0.1 1 0.3 1.9c2.5 14.5 11.5 27.1 24.5 34.1 12.9 7 28.4 7.6 41.9 1.8 13.5-5.9 23.6-17.6 27.4-31.9 3.8-14.2 0.8-29.4-8.1-41.2z"/>
	<path id="Layer" class="s4" d="m86.3 18.8c-2.1-2.8-4.5-5.4-7.2-7.6-2.7-2.3-5.7-4.3-8.8-5.9-3.2-1.6-6.5-2.9-9.9-3.8-3.4-0.9-7-1.4-10.5-1.5-11.1-0.2-18.8 3.1-23.2 5.8 5.8-3.4 14.3-5.3 21.7-5.2 18.9 0.3 39.4 13.2 42.4 36.5 3.5 26.8-15.2 49.1-41.4 49.2-28.9 0.1-46.4-25.5-41.8-48.4q0-0.4 0.1-0.9 0-0.4 0.1-0.8 0-0.4 0.1-0.8 0.1-0.5 0.2-0.9 0.2-2.2 0.6-4.3 0.4-2.2 1.1-4.3 0.6-2.1 1.4-4.2 0.9-2 1.9-4c-3.3 1.7-7.6 7.2-9.6 12.2q-1.2 2.9-1.9 5.9-0.8 3-1.2 6-0.4 3.1-0.4 6.2 0 3.1 0.3 6.1 0.1 1 0.3 1.9c2.5 14.5 11.5 27.1 24.5 34.1 12.9 7 28.4 7.6 41.9 1.8 13.5-5.9 23.6-17.6 27.4-31.9 3.8-14.2 0.8-29.4-8.1-41.2z"/>
	<path id="Layer" class="s5" d="m92 35.8c-2.8-24.4-24.5-35.3-43.6-35.2-7.4 0.1-15.9 1.8-21.7 5.2q-0.6 0.4-1.1 0.7-0.6 0.4-1.1 0.8-0.6 0.4-1.1 0.9-0.5 0.4-1 0.9c0.2-0.2 0.6-0.5 1.4-1.1h0.1l0.1-0.1q1-0.7 2.1-1.3 1.1-0.6 2.3-1.2 1.2-0.5 2.4-1 1.2-0.4 2.4-0.7 1.9-0.6 3.9-1 1.9-0.3 3.9-0.6 2-0.2 4-0.3 2-0.1 4 0c4.9 0.3 9.7 1.5 14.2 3.5 4.5 2.1 8.5 4.9 12 8.5 3.4 3.5 6.2 7.6 8.1 12.1 1.9 4.5 3 9.4 3.2 14.3 0.4 15.8-12.5 28.5-27.5 29.2-10.8 0.5-21.1-4.7-26.1-15.2q-0.4-0.9-0.8-1.9-0.4-0.9-0.7-1.9-0.3-0.9-0.5-1.9-0.2-1-0.4-1.9c-2.3-16.1 8.4-29.7 18.3-33.1-5.3-4.7-18.7-4.3-28.6 3-7.1 5.2-11.8 13.2-13.3 22.8q-0.4 2.7-0.4 5.5-0.1 2.7 0.3 5.5 0.3 2.7 1.1 5.4 0.7 2.6 1.8 5.2c1.5 3.5 3.5 6.9 6 9.9 2.4 3.1 5.2 5.8 8.4 8 3.2 2.3 6.7 4.1 10.3 5.4 3.7 1.3 7.5 2.1 11.4 2.4q1.8 0.1 3.6 0.1c31.7 0 45.5-24.1 42.6-50.9z"/>
	<path id="Layer" class="s6" d="m92 35.8c-2.8-24.4-24.5-35.3-43.6-35.2-7.4 0.1-15.9 1.8-21.7 5.2q-0.6 0.4-1.1 0.7-0.6 0.4-1.1 0.8-0.6 0.4-1.1 0.9-0.5 0.4-1 0.9c0.2-0.2 0.6-0.5 1.4-1.1h0.1l0.1-0.1q1-0.7 2.1-1.3 1.1-0.6 2.3-1.2 1.2-0.5 2.4-1 1.2-0.4 2.4-0.7 1.9-0.6 3.9-1 1.9-0.3 3.9-0.6 2-0.2 4-0.3 2-0.1 4 0c4.9 0.3 9.7 1.5 14.2 3.5 4.5 2.1 8.5 4.9 12 8.5 3.4 3.5 6.2 7.6 8.1 12.1 1.9 4.5 3 9.4 3.2 14.3 0.4 15.8-12.5 28.5-27.5 29.2-10.8 0.5-21.1-4.7-26.1-15.2q-0.4-0.9-0.8-1.9-0.4-0.9-0.7-1.9-0.3-0.9-0.5-1.9-0.2-1-0.4-1.9c-2.3-16.1 8.4-29.7 18.3-33.1-5.3-4.7-18.7-4.3-28.6 3-7.1 5.2-11.8 13.2-13.3 22.8q-0.4 2.7-0.4 5.5-0.1 2.7 0.3 5.5 0.3 2.7 1.1 5.4 0.7 2.6 1.8 5.2c1.5 3.5 3.5 6.9 6 9.9 2.4 3.1 5.2 5.8 8.4 8 3.2 2.3 6.7 4.1 10.3 5.4 3.7 1.3 7.5 2.1 11.4 2.4q1.8 0.1 3.6 0.1c31.7 0 45.5-24.1 42.6-50.9z"/>
	<path id="Layer" class="s7" d="m92 35.8c-2.8-24.4-24.5-35.3-43.6-35.2-7.4 0.1-15.9 1.8-21.7 5.2q-0.6 0.4-1.1 0.7-0.6 0.4-1.1 0.8-0.6 0.4-1.1 0.9-0.5 0.4-1 0.9c0.2-0.2 0.6-0.5 1.4-1.1h0.1l0.1-0.1q1-0.7 2.1-1.3 1.1-0.6 2.3-1.2 1.2-0.5 2.4-1 1.2-0.4 2.4-0.7 1.9-0.6 3.9-1 1.9-0.3 3.9-0.6 2-0.2 4-0.3 2-0.1 4 0c4.9 0.3 9.7 1.5 14.2 3.5 4.5 2.1 8.5 4.9 12 8.5 3.4 3.5 6.2 7.6 8.1 12.1 1.9 4.5 3 9.4 3.2 14.3 0.4 15.8-12.5 28.5-27.5 29.2-10.8 0.5-21.1-4.7-26.1-15.2q-0.4-0.9-0.8-1.9-0.4-0.9-0.7-1.9-0.3-0.9-0.5-1.9-0.2-1-0.4-1.9c-2.3-16.1 8.4-29.7 18.3-33.1-5.3-4.7-18.7-4.3-28.6 3-7.1 5.2-11.8 13.2-13.3 22.8q-0.4 2.7-0.4 5.5-0.1 2.7 0.3 5.5 0.3 2.7 1.1 5.4 0.7 2.6 1.8 5.2c1.5 3.5 3.5 6.9 6 9.9 2.4 3.1 5.2 5.8 8.4 8 3.2 2.3 6.7 4.1 10.3 5.4 3.7 1.3 7.5 2.1 11.4 2.4q1.8 0.1 3.6 0.1c31.7 0 45.5-24.1 42.6-50.9z"/>
	<path id="Layer" class="s8" d="m92 35.8c-2.8-24.4-24.5-35.3-43.6-35.2-7.4 0.1-15.9 1.8-21.7 5.2q-0.6 0.4-1.1 0.7-0.6 0.4-1.1 0.8-0.6 0.4-1.1 0.9-0.5 0.4-1 0.9c0.2-0.2 0.6-0.5 1.4-1.1h0.1l0.1-0.1q1-0.7 2.1-1.3 1.1-0.6 2.3-1.2 1.2-0.5 2.4-1 1.2-0.4 2.4-0.7 1.9-0.6 3.9-1 1.9-0.3 3.9-0.6 2-0.2 4-0.3 2-0.1 4 0c4.9 0.3 9.7 1.5 14.2 3.5 4.5 2.1 8.5 4.9 12 8.5 3.4 3.5 6.2 7.6 8.1 12.1 1.9 4.5 3 9.4 3.2 14.3 0.4 15.8-12.5 28.5-27.5 29.2-10.8 0.5-21.1-4.7-26.1-15.2q-0.4-0.9-0.8-1.9-0.4-0.9-0.7-1.9-0.3-0.9-0.5-1.9-0.2-1-0.4-1.9c-2.3-16.1 8.4-29.7 18.3-33.1-5.3-4.7-18.7-4.3-28.6 3-7.1 5.2-11.8 13.2-13.3 22.8q-0.4 2.7-0.4 5.5-0.1 2.7 0.3 5.5 0.3 2.7 1.1 5.4 0.7 2.6 1.8 5.2c1.5 3.5 3.5 6.9 6 9.9 2.4 3.1 5.2 5.8 8.4 8 3.2 2.3 6.7 4.1 10.3 5.4 3.7 1.3 7.5 2.1 11.4 2.4q1.8 0.1 3.6 0.1c31.7 0 45.5-24.1 42.6-50.9z"/>
	<path id="Layer" class="s9" d="m59 69.4c20.5-1.2 29.3-18.2 29.9-30.3 0.8-18.8-10.3-39.1-39.9-37.3q-2-0.1-4 0-2 0.1-4 0.3-2 0.3-3.9 0.6-2 0.4-3.9 1-1.2 0.3-2.4 0.8-1.2 0.4-2.4 1-1.1 0.5-2.3 1.1-1.1 0.6-2.1 1.3l-0.1 0.1h-0.1q-0.7 0.5-1.3 1 2.8-1.5 5.9-2.7 3.1-1.1 6.3-1.7 3.2-0.6 6.4-0.7 3.3 0 6.5 0.4c17 2.3 32.5 15.5 32.5 32.9 0 13.4-10.3 23.6-22.5 22.9-18-1.1-22.5-19.6-13.1-27.6-2.6-0.5-7.3 0.6-10.6 5.5-3 4.4-2.8 11.3-1 16.2 1.1 2.4 2.6 4.6 4.4 6.6 1.9 2 4 3.7 6.3 5.1 2.3 1.3 4.8 2.3 7.4 2.9 2.7 0.6 5.3 0.8 8 0.6z"/>
	<path id="Layer" class="s10" d="m86.4 22.5q-0.4-1.4-1-2.7-0.6-1.3-1.4-2.5-0.7-1.3-1.6-2.4-0.9-1.2-1.8-2.2-1.2-1.2-2.5-2.3-1.3-1.1-2.6-2.1-1.4-1-2.9-1.8-1.4-0.9-3-1.6-1.2-0.6-2.5-1.2-1.4-0.5-2.7-1-1.3-0.5-2.7-0.9-1.4-0.4-2.8-0.7-2.4-0.5-4.9-0.8-2.5-0.3-5-0.3-2.5 0-5 0.2-2.5 0.3-5 0.8c-6.8 1.4-12.8 4.4-16.6 8.1q1.2-0.7 2.3-1.2 1.2-0.6 2.4-1.1 1.2-0.5 2.5-0.9 1.2-0.4 2.5-0.7c3.2-0.8 6.6-1.2 9.9-1.2 3.4 0 6.8 0.5 10 1.3 3.3 0.8 6.4 2.1 9.4 3.7 2.9 1.7 5.6 3.6 8.1 5.9q0.7 0.8 1.4 1.5 0.7 0.8 1.4 1.6 0.6 0.8 1.2 1.6 0.6 0.8 1.2 1.7c5.8 9.6 5.3 21.6 0.7 28.6-3.4 5.3-10.7 10.2-17.5 10.2 2.6 0.2 5.1 0 7.6-0.5 2.5-0.5 5-1.3 7.3-2.4 2.2-1.2 4.4-2.6 6.3-4.3 1.8-1.7 3.5-3.7 4.9-5.9 4.8-7.4 4.9-16.9 2.4-24.5z"/>
	<path id="Layer" class="s11" d="m86.4 22.5q-0.4-1.4-1-2.7-0.6-1.3-1.4-2.5-0.7-1.3-1.6-2.4-0.9-1.2-1.8-2.2-1.2-1.2-2.5-2.3-1.3-1.1-2.6-2.1-1.4-1-2.9-1.8-1.4-0.9-3-1.6-1.2-0.6-2.5-1.2-1.4-0.5-2.7-1-1.3-0.5-2.7-0.9-1.4-0.4-2.8-0.7-2.4-0.5-4.9-0.8-2.5-0.3-5-0.3-2.5 0-5 0.2-2.5 0.3-5 0.8c-6.8 1.4-12.8 4.4-16.6 8.1q1.2-0.7 2.3-1.2 1.2-0.6 2.4-1.1 1.2-0.5 2.5-0.9 1.2-0.4 2.5-0.7c3.2-0.8 6.6-1.2 9.9-1.2 3.4 0 6.8 0.5 10 1.3 3.3 0.8 6.4 2.1 9.4 3.7 2.9 1.7 5.6 3.6 8.1 5.9q0.7 0.8 1.4 1.5 0.7 0.8 1.4 1.6 0.6 0.8 1.2 1.6 0.6 0.8 1.2 1.7c5.8 9.6 5.3 21.6 0.7 28.6-3.4 5.3-10.7 10.2-17.5 10.2 2.6 0.2 5.1 0 7.6-0.5 2.5-0.5 5-1.3 7.3-2.4 2.2-1.2 4.4-2.6 6.3-4.3 1.8-1.7 3.5-3.7 4.9-5.9 4.8-7.4 4.9-16.9 2.4-24.5z"/>
	<path id="Layer" class="s12" d="m86.3 18.8q-0.4-0.6-1-1.2-0.5-0.6-1-1.2-0.5-0.6-1-1.2-0.6-0.6-1.1-1.1-0.5-0.5-1-1-0.4-0.4-0.9-0.9-0.5-0.4-1-0.8-0.5-0.4-1-0.8 0.3 0.2 0.6 0.5 0.3 0.2 0.6 0.5 0.3 0.3 0.5 0.5 0.3 0.3 0.6 0.6 0.9 1 1.8 2.2 0.9 1.1 1.6 2.4 0.8 1.2 1.4 2.5 0.6 1.3 1 2.7c2.5 7.6 2.4 17.1-2.4 24.5-1.3 2.1-2.9 4-4.8 5.7-1.8 1.7-3.8 3.1-6 4.2-2.2 1.2-4.5 2-6.9 2.6-2.4 0.5-4.9 0.7-7.4 0.6q-0.6 0-1.3 0c-18-1.1-22.5-19.6-13.1-27.6-2.6-0.5-7.3 0.6-10.6 5.5-3 4.4-2.8 11.3-1 16.2q-0.4-0.9-0.8-1.9-0.4-0.9-0.7-1.9-0.3-0.9-0.5-1.9-0.2-1-0.4-1.9c-2.3-16.1 8.4-29.7 18.3-33.1-5.3-4.7-18.7-4.3-28.6 3q-2.2 1.6-4 3.5-1.9 2-3.5 4.2-1.5 2.3-2.7 4.7-1.1 2.5-1.9 5.1 0.3-2.1 0.7-4.2 0.4-2.1 1-4.2 0.7-2 1.5-4 0.8-2 1.8-3.9c-3.3 1.7-7.6 7.2-9.6 12.2q-1.2 2.9-1.9 5.9-0.8 3-1.2 6-0.4 3.1-0.4 6.2 0 3.1 0.3 6.1 0.1 1 0.3 1.9c2.5 14.5 11.5 27.1 24.5 34.1 12.9 7 28.4 7.6 41.9 1.8 13.5-5.9 23.6-17.6 27.4-31.9 3.8-14.2 0.8-29.4-8.1-41.2z"/>
</svg>